<svg width="72" height="57" viewBox="0 0 72 57" fill="none" xmlns="http://www.w3.org/2000/svg">
<g clip-path="url(#clip0_2752_12)">
<path d="M72 21.8458C72 18.2285 69.0576 15.2861 65.4403 15.2861C61.823 15.2861 58.8806 18.2285 58.8806 21.8458C58.8806 22.8701 59.1235 23.8359 59.543 24.7008L50.6602 28.8759L39.9072 11.8176C41.5133 10.6205 42.5606 8.71301 42.5606 6.56069C42.5606 2.94341 39.6182 0.00100708 36.001 0.00100708C32.3837 0.00100708 29.4413 2.94341 29.4413 6.56069C29.4413 8.71301 30.4877 10.6205 32.0947 11.8176L21.3418 28.8759L12.4589 24.7018C12.8794 23.8368 13.1213 22.8711 13.1213 21.8468C13.1213 18.2295 10.1789 15.2871 6.5616 15.2871C2.94432 15.2871 0 18.2285 0 21.8458C0 25.3488 2.76096 28.2106 6.21984 28.3892L10.7328 47.6861V55.44C10.7328 56.2349 11.377 56.88 12.1728 56.88H59.8272C60.623 56.88 61.2672 56.2349 61.2672 55.44V47.6861L65.7802 28.3892C69.239 28.2106 72 25.3488 72 21.8458ZM65.4403 18.1661C67.4698 18.1661 69.12 19.8173 69.12 21.8458C69.12 23.8743 67.4688 25.5264 65.4403 25.5264C63.4118 25.5264 61.7606 23.8752 61.7606 21.8458C61.7606 19.8164 63.4118 18.1661 65.4403 18.1661ZM36 2.88005C38.0294 2.88005 39.6797 4.53125 39.6797 6.55973C39.6797 8.58821 38.0294 10.2394 36 10.2394C33.9706 10.2394 32.3203 8.58821 32.3203 6.55973C32.3203 4.53125 33.9715 2.88005 36 2.88005ZM21.8794 32.16C22.3603 32.16 22.8269 31.9181 23.0986 31.488L34.7539 12.9975C35.1581 13.0752 35.5738 13.1194 36 13.1194C36.4262 13.1194 36.8419 13.0752 37.2461 12.9975L48.9014 31.488C49.1731 31.9181 49.6397 32.16 50.1206 32.16C50.3261 32.16 50.5354 32.1159 50.7322 32.0228L61.4045 27.0068C61.8691 27.3716 62.3818 27.6768 62.9347 27.9063L58.6848 46.0791H13.3142L9.06432 27.9063C9.61728 27.6768 10.1299 27.3716 10.5946 27.0068L21.2669 32.0228C21.4646 32.1159 21.6739 32.16 21.8794 32.16ZM2.88 21.8458C2.88 19.8173 4.53024 18.1661 6.55968 18.1661C8.58912 18.1661 10.2394 19.8173 10.2394 21.8458C10.2394 23.8743 8.58816 25.5264 6.55968 25.5264C4.5312 25.5264 2.88 23.8752 2.88 21.8458ZM58.3872 54H13.6128V48.96H58.3872V54Z" fill="#6D150E"/>
</g>
<defs>
<clipPath id="clip0_2752_12">
<rect width="72" height="56.88" fill="white"/>
</clipPath>
</defs>
</svg>
