<svg width="75" height="47" viewBox="0 0 75 47" fill="none" xmlns="http://www.w3.org/2000/svg">
<g clip-path="url(#clip0_2752_7)">
<path d="M74.7265 17.771L62.6405 0.636015C62.1625 -0.0409849 61.2265 -0.202985 60.5505 0.275015L50.8545 7.11302C50.3195 7.49002 50.1125 8.15402 50.2835 8.75002L38.3475 6.28102C37.9955 6.20802 37.6275 6.26402 37.3125 6.44002C37.0215 6.60202 31.2335 9.84102 27.5505 12.199L25.5105 10.494C25.9595 9.87902 25.8985 9.01902 25.3175 8.50102L16.4685 0.597015C16.1725 0.332015 15.7895 0.200015 15.3855 0.218015C14.9885 0.240015 14.6165 0.420015 14.3515 0.717015L0.381519 16.355C-0.170481 16.973 -0.117481 17.921 0.501519 18.473L9.35052 26.377C9.62552 26.623 9.98152 26.758 10.3495 26.758C10.3775 26.758 10.4055 26.758 10.4335 26.756C10.7525 26.738 11.0525 26.615 11.2965 26.415L13.2205 27.91C12.8305 29.162 12.9885 30.571 13.8015 31.725L13.8805 31.836C14.5515 32.788 15.5535 33.421 16.7015 33.62C16.8085 33.638 16.9155 33.637 17.0215 33.648C17.0395 34.485 17.2975 35.326 17.8155 36.061L17.8965 36.176C18.6935 37.306 19.9345 37.934 21.2175 38.007C21.2615 38.815 21.5205 39.598 21.9985 40.276L22.0795 40.391C22.9275 41.593 24.2775 42.236 25.6485 42.236C25.7195 42.236 25.7895 42.224 25.8605 42.22C25.9445 42.91 26.1755 43.591 26.6035 44.198L26.6845 44.312C27.3555 45.264 28.3575 45.897 29.5055 46.096C29.7565 46.139 30.0075 46.161 30.2565 46.161C31.1485 46.161 32.0165 45.887 32.7605 45.362L35.0925 43.717L36.9125 45.134C37.7195 45.762 38.6775 46.067 39.6295 46.067C40.9505 46.067 42.2575 45.48 43.1295 44.36C43.6025 43.753 43.8915 43.06 44.0045 42.348C45.4665 42.483 46.9525 41.895 47.9145 40.66C48.4505 39.972 48.7485 39.17 48.8225 38.354C50.1325 38.345 51.4265 37.759 52.2925 36.647C52.8595 35.919 53.1625 35.067 53.2155 34.208C53.3305 34.203 53.4455 34.193 53.5605 34.178C54.7345 34.032 55.7825 33.437 56.5085 32.503C57.3265 31.452 57.5775 30.148 57.3375 28.932L62.0175 25.548L62.5755 26.339C62.8045 26.664 63.1535 26.884 63.5455 26.952C63.6305 26.967 63.7155 26.974 63.8005 26.974C64.1085 26.974 64.4105 26.879 64.6655 26.7L74.3615 19.861C74.6865 19.632 74.9065 19.283 74.9745 18.891C75.0425 18.499 74.9515 18.096 74.7225 17.771H74.7265ZM3.61852 17.235L15.5885 3.83402L22.1995 9.74002L10.2295 23.141L3.61852 17.235ZM16.3305 30.104L16.2515 29.993C15.8195 29.38 15.9665 28.53 16.5795 28.097L21.9895 24.282C22.2275 24.114 22.5005 24.034 22.7715 24.034C23.1995 24.034 23.6205 24.234 23.8845 24.609L23.9655 24.724C24.1745 25.021 24.2565 25.381 24.1945 25.74C24.1335 26.097 23.9355 26.409 23.6395 26.618L18.8665 29.985L18.8605 29.99L18.2285 30.436C17.9315 30.645 17.5715 30.725 17.2125 30.665C16.8545 30.603 16.5425 30.405 16.3305 30.104ZM20.2675 34.331C19.8365 33.719 19.9825 32.871 20.5925 32.438L25.3665 29.07L25.3705 29.067L26.0055 28.619C26.2375 28.455 26.5085 28.37 26.7865 28.37C26.8645 28.37 26.9425 28.377 27.0215 28.391C27.3795 28.453 27.6915 28.65 27.9035 28.951L27.9825 29.062C28.4145 29.675 28.2675 30.525 27.6555 30.958L27.5995 30.998C27.5855 31.008 27.5685 31.014 27.5545 31.024L23.0515 34.2C23.0385 34.209 23.0285 34.221 23.0155 34.231L22.2455 34.774C21.6325 35.206 20.7825 35.06 20.3505 34.447L20.2695 34.332L20.2675 34.331ZM24.5325 38.661L24.4515 38.546C24.2425 38.249 24.1605 37.888 24.2225 37.53C24.2825 37.179 24.4765 36.875 24.7635 36.666L29.3085 33.461C29.5345 33.309 29.7945 33.225 30.0625 33.225C30.1405 33.225 30.2185 33.232 30.2975 33.246C30.6555 33.308 30.9675 33.505 31.1795 33.806L31.2585 33.917C31.6905 34.53 31.5435 35.38 30.9305 35.813L30.5485 36.083L30.5395 36.088L27.6555 38.122L27.6475 38.129L26.4285 38.989C25.8165 39.423 24.9655 39.274 24.5325 38.661ZM33.9175 40.876L31.0335 42.91C30.7365 43.12 30.3745 43.199 30.0175 43.139C29.6595 43.077 29.3475 42.88 29.1385 42.583L29.0575 42.468C28.6265 41.857 28.7725 41.01 29.3815 40.576L32.2745 38.535C32.5055 38.374 32.7745 38.289 33.0505 38.289C33.1285 38.289 33.2075 38.295 33.2855 38.309C33.6435 38.371 33.9555 38.568 34.1675 38.869L34.2465 38.98C34.4555 39.277 34.5375 39.638 34.4755 39.996C34.4135 40.354 34.2165 40.666 33.9195 40.875L33.9175 40.876ZM54.1455 30.661C53.9105 30.963 53.5725 31.155 53.1935 31.202C52.8165 31.25 52.4405 31.146 52.1385 30.911L51.5685 30.467L46.9025 26.388L44.9275 28.647L49.6885 32.81C50.2995 33.297 50.4085 34.188 49.9275 34.805C49.4425 35.428 48.5425 35.539 47.9205 35.055L47.2415 34.526L43.4475 31.231L41.4805 33.496L45.2925 36.807C45.3005 36.814 45.3065 36.822 45.3145 36.829C45.9195 37.315 46.0245 38.208 45.5495 38.818C45.0655 39.44 44.1655 39.552 43.5425 39.068L42.4285 38.201L40.1915 36.023L38.0985 38.172L40.3945 40.408L40.3995 40.403C40.4385 40.441 40.4725 40.481 40.5155 40.515C41.1355 41 41.2455 41.899 40.7635 42.519C40.5295 42.82 40.1905 43.012 39.8115 43.06C39.4305 43.106 39.0575 43.004 38.7555 42.769L37.1205 41.496C37.2565 41.181 37.3675 40.855 37.4275 40.509C37.6255 39.362 37.3655 38.205 36.6925 37.25L36.6135 37.139C36.0685 36.366 35.2985 35.817 34.4165 35.527C34.6335 34.402 34.4175 33.195 33.7065 32.186L33.6275 32.075C33.0305 31.229 32.1665 30.654 31.1765 30.393C31.3085 29.35 31.0815 28.257 30.4285 27.331L30.3495 27.22C29.6785 26.268 28.6765 25.635 27.5285 25.436C27.4215 25.418 27.3155 25.423 27.2095 25.412C27.1925 24.551 26.9215 23.715 26.4145 22.995L26.3335 22.88C24.9475 20.917 22.2235 20.444 20.2575 21.83L15.0285 25.518L13.3155 24.186L23.5295 12.751L25.1975 14.145C25.0525 14.547 25.0585 14.999 25.2855 15.394C28.3095 20.673 33.0465 19.186 36.7195 17.474C39.3425 23.98 44.8585 24.839 48.1215 24.266L53.8925 28.653C54.5145 29.137 54.6265 30.038 54.1425 30.66L54.1455 30.661ZM55.7985 26.347C55.7715 26.325 55.7525 26.298 55.7245 26.277L49.3875 21.46C49.0155 21.178 48.5335 21.085 48.0845 21.208C47.8085 21.283 41.3145 22.959 39.0335 14.974C38.9105 14.546 38.6045 14.194 38.1975 14.014C37.7885 13.833 37.3225 13.844 36.9245 14.043C32.7185 16.133 30.3965 16.814 28.7015 15.027C31.6775 13.085 36.7125 10.223 38.2885 9.33502L52.6845 12.313L60.2915 23.099L55.7975 26.348L55.7985 26.347ZM64.1665 23.385L53.8105 8.70102L61.0545 3.59202L71.4115 18.276L64.1665 23.385Z" fill="#6D150E"/>
</g>
<defs>
<clipPath id="clip0_2752_7">
<rect width="75" height="46.16" fill="white"/>
</clipPath>
</defs>
</svg>
