<svg width="58" height="72" viewBox="0 0 58 72" fill="none" xmlns="http://www.w3.org/2000/svg">
<g clip-path="url(#clip0_2752_9)">
<path d="M56.0006 0H1.44C0.64416 0 0 0.64416 0 1.44V39.817C0 46.9987 4.76448 54.5923 14.161 62.3846C19.9344 67.1731 27.7882 72 28.7203 72C28.9613 72 29.1994 71.9395 29.4115 71.8224C30.5558 71.1974 57.4406 56.2963 57.4406 39.817V1.44C57.4406 0.64416 56.7965 0 56.0006 0ZM54.5606 39.817C54.5606 53.2627 32.8666 66.4973 28.7107 68.9078C24.5472 66.5491 2.88 53.6074 2.88 39.817V2.88H54.5606V39.817Z" fill="#6D150E"/>
<path d="M27.9944 54.3792C28.2181 54.5107 28.4696 54.576 28.7202 54.576C28.9708 54.576 29.2223 54.5107 29.446 54.3792C30.046 54.0288 44.1455 45.6816 44.1455 36.0278V15.0797C44.1455 14.2848 43.5013 13.6397 42.7055 13.6397H14.7349C13.9391 13.6397 13.2949 14.2848 13.2949 15.0797V36.0269C13.2949 45.6816 27.3944 54.0288 27.9944 54.3792ZM16.1749 16.5197H41.2655V21.4186L28.6924 33.9917L24.6959 29.9962L22.6597 32.0323L27.6748 37.0464C27.956 37.3277 28.3247 37.4678 28.6933 37.4678C29.062 37.4678 29.4306 37.3277 29.7119 37.0464L41.2674 25.4918V36.0288C41.2674 42.9302 31.4984 49.6685 28.7221 51.4435C25.9458 49.6685 16.1768 42.9312 16.1768 36.0288V16.5197H16.1749Z" fill="#6D150E"/>
</g>
<defs>
<clipPath id="clip0_2752_9">
<rect width="57.4406" height="72" fill="white"/>
</clipPath>
</defs>
</svg>
