<svg width="72" height="64" viewBox="0 0 72 64" fill="none" xmlns="http://www.w3.org/2000/svg">
<g clip-path="url(#clip0_2750_2)">
<path d="M40.5494 63.769C40.2547 63.769 39.959 63.7459 39.6662 63.6979L17.2358 60.0327C16.5034 59.9127 15.7555 59.8522 15.0115 59.8522H2.26848C1.0176 59.8522 0 58.8346 0 57.5837V42.2237C0 40.9728 1.0176 39.9543 2.26848 39.9543H15.1949C15.3946 39.9543 15.5779 39.8803 15.7123 39.7479C17.1533 38.3232 21.071 35.0083 26.304 35.0083C31.4237 35.0083 35.7734 38.1869 37.4045 39.5539C37.6714 39.7767 38.0102 39.8995 38.3597 39.8995H46.415C47.8915 39.9475 49.8739 40.8336 50.737 42.9715C52.3248 41.9194 54.9869 40.1655 58.8346 37.6599C61.2403 36.0931 63.6346 35.5642 65.9482 36.0903C69.6614 36.9331 71.7053 40.2288 71.7898 40.369C72.1766 41.0055 72.0154 41.832 71.4163 42.2755L43.8566 62.6823C42.8995 63.3907 41.7312 63.769 40.5494 63.769ZM2.88 56.9722H15.0115C15.9101 56.9722 16.8144 57.0461 17.6995 57.1901L40.1299 60.8554C40.8365 60.9715 41.5699 60.793 42.144 60.3677L68.5085 40.8461C67.8173 40.1175 66.7142 39.2122 65.2886 38.8954C63.768 38.5575 62.1264 38.9539 60.4061 40.0743C55.3258 43.3824 52.3238 45.3744 51.1315 46.1693C50.783 49.6647 48.1565 50.9674 46.7222 51.1651C46.657 51.1738 46.5907 51.1786 46.5254 51.1786H28.5686V48.2986H46.3968C46.8269 48.2035 48.2899 47.7043 48.2899 45.3735C48.2899 43.081 46.8029 42.8083 46.3469 42.7786L38.3597 42.7805C37.3354 42.7805 36.3398 42.4195 35.5555 41.7619C34.1645 40.5975 30.479 37.8883 26.303 37.8883C22.127 37.8883 18.9245 40.6215 17.737 41.7955C17.0592 42.4656 16.1568 42.8343 15.1949 42.8343H2.88V56.9722Z" fill="#6D150E"/>
<path d="M45.6497 32.1254L30.5393 17.015C26.6523 13.128 26.6523 6.80255 30.5393 2.91455C34.4263 -0.972492 40.7527 -0.972492 44.6398 2.91455L45.6497 3.92447L46.6596 2.91455C50.5467 -0.972492 56.8731 -0.972492 60.7601 2.91455C62.6436 4.79711 63.6804 7.30175 63.6804 9.96479C63.6804 12.6278 62.6436 15.1315 60.7601 17.015L45.6507 32.1254H45.6497ZM37.5895 2.87903C35.7732 2.87903 33.9579 3.57023 32.5755 4.95167C29.8116 7.71647 29.8116 12.2141 32.5755 14.9789L45.6497 28.0531L58.723 14.9789C61.4868 12.2141 61.4868 7.71647 58.723 4.95167C55.9582 2.18783 51.4606 2.18783 48.6958 4.95167L45.6497 7.99871L42.6036 4.95167C41.2212 3.57023 39.4049 2.87903 37.5895 2.87903Z" fill="#6D150E"/>
</g>
<defs>
<clipPath id="clip0_2750_2">
<rect width="72" height="63.769" fill="white"/>
</clipPath>
</defs>
</svg>
