<svg width="72" height="61" viewBox="0 0 72 61" fill="none" xmlns="http://www.w3.org/2000/svg">
<g clip-path="url(#clip0_2751_5)">
<path d="M61.376 0H10.625L0 23.0048L36 60.8425L72 23.0048L61.376 0ZM49.2143 24.1527L36 55.1275L22.7866 24.1527H49.2143ZM23.1772 21.2948L35.9895 3.85541L48.5827 21.2938H23.1772V21.2948ZM38.7951 2.85797H58.2989L51.0558 19.8362L38.7951 2.85797ZM20.8556 19.6267L13.7021 2.85797H33.1763L20.8556 19.6267ZM18.4597 21.2948H3.93829L11.4872 4.94906L18.4597 21.2938V21.2948ZM19.6791 24.1527L31.5806 52.0504L5.0367 24.1527H19.6791ZM52.3219 24.1527H66.9642L40.4203 52.0504L52.3219 24.1527ZM53.5413 21.2948L60.5138 4.95001L68.0617 21.2948H53.5413Z" fill="#6D150E"/>
</g>
<defs>
<clipPath id="clip0_2751_5">
<rect width="72" height="60.8425" fill="white"/>
</clipPath>
</defs>
</svg>
