<svg width="48" height="48" viewBox="0 0 48 48" fill="none" xmlns="http://www.w3.org/2000/svg">
<path d="M24 0.75C16.5562 0.75 10.5 6.80625 10.5 14.25C10.5 16.3129 10.9733 18.3482 11.8835 20.1995C12.7937 22.0507 14.1164 23.6684 15.75 24.9281V46.5C15.7499 46.6484 15.7938 46.7935 15.8762 46.917C15.9586 47.0404 16.0758 47.1366 16.2129 47.1935C16.35 47.2503 16.5009 47.2651 16.6465 47.2361C16.792 47.2072 16.9257 47.1356 17.0306 47.0306L24 40.0603L30.9694 47.0306C31.0743 47.1356 31.208 47.2072 31.3535 47.2361C31.4991 47.2651 31.65 47.2503 31.7871 47.1935C31.9242 47.1366 32.0414 47.0404 32.1238 46.917C32.2062 46.7935 32.2501 46.6484 32.25 46.5V24.9281C33.8836 23.6684 35.2063 22.0507 36.1165 20.1995C37.0267 18.3482 37.5 16.3129 37.5 14.25C37.5 6.80625 31.4438 0.75 24 0.75ZM30.75 44.6897L24.5306 38.4694C24.3898 38.3289 24.1989 38.25 24 38.25C23.8011 38.25 23.6102 38.3289 23.4694 38.4694L17.25 44.6897V25.9378C19.3015 27.1249 21.6298 27.75 24 27.75C26.3702 27.75 28.6985 27.1249 30.75 25.9378V44.6897ZM24 26.25C21.6266 26.25 19.3065 25.5462 17.3332 24.2276C15.3598 22.9091 13.8217 21.0349 12.9134 18.8422C12.0052 16.6495 11.7676 14.2367 12.2306 11.9089C12.6936 9.58114 13.8365 7.44295 15.5147 5.76472C17.1929 4.08649 19.3311 2.9436 21.6589 2.48058C23.9867 2.01755 26.3995 2.25519 28.5922 3.16345C30.7849 4.0717 32.6591 5.60977 33.9776 7.58316C35.2962 9.55655 36 11.8766 36 14.25C35.9964 17.4315 34.731 20.4817 32.4813 22.7313C30.2317 24.981 27.1815 26.2464 24 26.25Z" fill="#350000"/>
<path d="M24 3.75C21.9233 3.75 19.8932 4.36581 18.1665 5.51957C16.4398 6.67332 15.094 8.3132 14.2993 10.2318C13.5045 12.1504 13.2966 14.2616 13.7018 16.2984C14.1069 18.3352 15.1069 20.2062 16.5754 21.6746C18.0438 23.1431 19.9148 24.1431 21.9516 24.5482C23.9884 24.9534 26.0995 24.7455 28.0182 23.9507C29.9368 23.156 31.5767 21.8102 32.7304 20.0835C33.8842 18.3568 34.5 16.3267 34.5 14.25C34.4969 11.4662 33.3897 8.79722 31.4212 6.82875C29.4528 4.86028 26.7838 3.75305 24 3.75ZM24 23.25C22.22 23.25 20.4799 22.7222 18.9999 21.7332C17.5198 20.7443 16.3663 19.3387 15.6851 17.6942C15.0039 16.0496 14.8257 14.24 15.1729 12.4942C15.5202 10.7484 16.3774 9.14471 17.636 7.88604C18.8947 6.62737 20.4984 5.7702 22.2442 5.42293C23.99 5.07567 25.7996 5.2539 27.4441 5.93508C29.0887 6.61627 30.4943 7.76983 31.4832 9.24987C32.4722 10.7299 33 12.47 33 14.25C32.9971 16.6361 32.048 18.9236 30.3608 20.6108C28.6736 22.298 26.3861 23.2471 24 23.25Z" fill="#350000"/>
<path d="M31.226 11.7525C31.1747 11.6057 31.079 11.4785 30.9522 11.3885C30.8253 11.2985 30.6737 11.2501 30.5182 11.25H26.0725L24.7085 7.30035C24.6575 7.15298 24.5618 7.02518 24.4348 6.93472C24.3077 6.84426 24.1557 6.79565 23.9997 6.79565C23.8438 6.79565 23.6917 6.84426 23.5647 6.93472C23.4377 7.02518 23.342 7.15298 23.291 7.30035L21.9269 11.25H17.4813C17.3256 11.2499 17.1738 11.2981 17.0468 11.3881C16.9198 11.4781 16.824 11.6054 16.7726 11.7523C16.7211 11.8992 16.7167 12.0585 16.7599 12.208C16.8031 12.3576 16.8917 12.49 17.0135 12.5869L20.636 15.4707L19.2579 19.7129C19.2091 19.8635 19.2092 20.0256 19.2582 20.1762C19.3072 20.3267 19.4025 20.4579 19.5306 20.5509C19.6587 20.6439 19.8129 20.694 19.9713 20.694C20.1296 20.694 20.2838 20.644 20.4119 20.551L23.9997 17.9447L27.5875 20.551C27.7156 20.644 27.8699 20.694 28.0282 20.694C28.1865 20.694 28.3407 20.6439 28.4688 20.5509C28.5969 20.4579 28.6923 20.3267 28.7413 20.1762C28.7903 20.0256 28.7904 19.8635 28.7416 19.7129L27.3635 15.4707L30.986 12.5869C31.1077 12.49 31.1962 12.3576 31.2392 12.2081C31.2822 12.0585 31.2776 11.8993 31.226 11.7525ZM26.0228 14.6213C25.9033 14.7164 25.8157 14.8457 25.7717 14.992C25.7276 15.1382 25.7292 15.2944 25.7763 15.4397L26.6022 17.9804L24.4404 16.411C24.3123 16.3178 24.1581 16.2675 23.9997 16.2675C23.8414 16.2675 23.6871 16.3178 23.5591 16.411L21.3972 17.9804L22.2232 15.4397C22.2702 15.2944 22.2718 15.1382 22.2278 14.992C22.1837 14.8457 22.0961 14.7164 21.9766 14.6213L19.6272 12.75H22.4613C22.6173 12.75 22.7694 12.7013 22.8965 12.6107C23.0235 12.5201 23.1191 12.3922 23.17 12.2447L23.9997 9.84192L24.8294 12.2447C24.8803 12.3922 24.9759 12.5201 25.103 12.6107C25.23 12.7013 25.3821 12.75 25.5382 12.75H28.3722L26.0228 14.6213Z" fill="#350000"/>
<path d="M18.75 27.75C18.5511 27.75 18.3603 27.829 18.2197 27.9697C18.079 28.1103 18 28.3011 18 28.5V32.25C18 32.4489 18.079 32.6397 18.2197 32.7803C18.3603 32.921 18.5511 33 18.75 33C18.9489 33 19.1397 32.921 19.2803 32.7803C19.421 32.6397 19.5 32.4489 19.5 32.25V28.5C19.5 28.3011 19.421 28.1103 19.2803 27.9697C19.1397 27.829 18.9489 27.75 18.75 27.75Z" fill="#350000"/>
<path d="M18.75 33.75C18.5511 33.75 18.3603 33.829 18.2197 33.9697C18.079 34.1103 18 34.3011 18 34.5V35.25C18 35.4489 18.079 35.6397 18.2197 35.7803C18.3603 35.921 18.5511 36 18.75 36C18.9489 36 19.1397 35.921 19.2803 35.7803C19.421 35.6397 19.5 35.4489 19.5 35.25V34.5C19.5 34.3011 19.421 34.1103 19.2803 33.9697C19.1397 33.829 18.9489 33.75 18.75 33.75Z" fill="#350000"/>
</svg>
