<svg width="48" height="48" viewBox="0 0 48 48" fill="none" xmlns="http://www.w3.org/2000/svg">
<g clip-path="url(#clip0_424_43)">
<path d="M47.3304 6.80692L41.1938 0.670324C40.3 -0.223488 38.8455 -0.223395 37.9517 0.670324L26.3977 12.2243C26.1084 12.5137 26.1084 12.9826 26.3977 13.272C26.687 13.5612 27.156 13.5612 27.4453 13.272L38.9993 1.71807C39.1525 1.56489 39.3561 1.48061 39.5727 1.48061C39.7892 1.48061 39.9928 1.56489 40.146 1.71807L46.2827 7.85467C46.4358 8.00776 46.5202 8.21139 46.5202 8.42804C46.5202 8.6446 46.4358 8.84823 46.2827 9.00132L44.7767 10.5073L40.8309 6.56157C40.5416 6.27235 40.0725 6.27235 39.7832 6.56157C39.4939 6.85098 39.4939 7.31992 39.7832 7.60932L43.729 11.5551L42.0084 13.2757L40.2742 11.5415C39.9849 11.2523 39.5158 11.2523 39.2265 11.5415C38.9372 11.8309 38.9372 12.2998 39.2265 12.5892L40.9607 14.3233L39.2401 16.0439L37.5059 14.3097C37.2166 14.0205 36.7476 14.0205 36.4583 14.3097C36.169 14.5991 36.169 15.0681 36.4583 15.3575L38.1925 17.0916L36.4719 18.8122L32.526 14.8662C32.2368 14.5771 31.7677 14.5769 31.4784 14.8662C31.1891 15.1556 31.1891 15.6246 31.4784 15.914L35.4242 19.8598L33.7036 21.5804L31.9694 19.8462C31.6801 19.557 31.2111 19.557 30.9218 19.8462C30.6325 20.1356 30.6325 20.6046 30.9218 20.894L32.6559 22.6281L31.2003 24.0836L23.917 16.8003L25.2717 15.4455C25.561 15.1561 25.561 14.6872 25.2717 14.3978C24.9823 14.1085 24.5133 14.1085 24.224 14.3978L22.8692 15.7525L9.20347 2.08726C8.25303 1.13682 6.98938 0.613418 5.64528 0.613418C4.30119 0.613512 3.03753 1.13692 2.08719 2.08736C1.13666 3.03779 0.61325 4.30136 0.61325 5.64554C0.61325 6.98964 1.13666 8.25329 2.08709 9.20373L15.7526 22.8692L0.672313 37.9497C-0.2215 38.8436 -0.2215 40.298 0.672313 41.1919L6.80891 47.3286C7.24184 47.7615 7.81756 48 8.42994 48C9.04231 48 9.61803 47.7615 10.051 47.3286L25.1314 32.2481L26.2055 33.3222C26.4948 33.6114 26.9638 33.6114 27.2532 33.3222C27.5425 33.0328 27.5425 32.5639 27.2532 32.2745L25.7706 30.7919C25.7418 30.7464 25.7081 30.703 25.6684 30.6634C25.6288 30.6237 25.5854 30.59 25.54 30.5612L9.48781 14.509L11.4745 12.5224L12.7028 13.7507C12.8474 13.8953 13.037 13.9676 13.2267 13.9676C13.4163 13.9676 13.6059 13.8953 13.7505 13.7507C14.0398 13.4613 14.0398 12.9924 13.7505 12.7029L12.5223 11.4747L14.509 9.48807L22.3445 17.3236C22.3448 17.324 22.3451 17.3243 22.3454 17.3246C22.3458 17.325 22.3461 17.3252 22.3465 17.3256L30.6041 25.5832C30.6245 25.6102 30.6463 25.6366 30.6709 25.6613C30.6956 25.6859 30.7219 25.7077 30.7489 25.7281L41.7428 36.722L39.7561 38.7086L28.664 27.6165C28.6573 27.6093 28.6513 27.6017 28.6443 27.5948L24.221 23.1714C24.2137 23.164 24.2057 23.1577 24.1982 23.1507L16.3848 15.3374C16.0955 15.0482 15.6265 15.0482 15.3372 15.3374C15.0478 15.6268 15.0478 16.0958 15.3372 16.3852L38.7082 39.7562L36.7214 41.7429L29.6812 34.7025C29.3919 34.4133 28.9228 34.4133 28.6335 34.7025C28.3442 34.9919 28.3442 35.4609 28.6335 35.7503L36.1977 43.3144C36.2696 43.3863 36.3586 43.4443 36.4534 43.4811L45.4045 46.9563C45.5457 47.011 45.6928 47.0377 45.8389 47.0377C46.1522 47.0377 46.4599 46.915 46.6895 46.6853C47.0262 46.3484 47.1321 45.844 46.9595 45.4002L43.4806 36.4533C43.4439 36.3588 43.3858 36.2695 43.314 36.1978L32.2479 25.1317L47.3304 10.0491C48.2243 9.15517 48.2243 7.70082 47.3304 6.80692ZM24.084 31.2005L22.6303 32.6539L20.8961 30.9197C20.6068 30.6305 20.1377 30.6305 19.8484 30.9197C19.5591 31.2091 19.5591 31.678 19.8484 31.9674L21.5826 33.7016L19.862 35.4222L15.9162 31.4764C15.6268 31.1872 15.1578 31.1872 14.8685 31.4764C14.5792 31.7658 14.5792 32.2347 14.8685 32.5241L18.8143 36.47L17.0938 38.1906L15.3596 36.4564C15.0703 36.1672 14.6012 36.1672 14.3119 36.4564C14.0226 36.7458 14.0226 37.2147 14.3119 37.5041L16.0461 39.2382L14.3255 40.9588L12.5913 39.2246C12.302 38.9354 11.833 38.9354 11.5437 39.2246C11.2543 39.514 11.2543 39.983 11.5437 40.2724L13.2778 42.0066L11.5573 43.7272L7.61141 39.7813C7.32209 39.4921 6.85306 39.4921 6.56375 39.7813C6.27444 40.0707 6.27444 40.5397 6.56375 40.8291L10.5096 44.7748L9.00359 46.2808C8.85041 46.434 8.64678 46.5184 8.43022 46.5184C8.21366 46.5184 8.01003 46.434 7.85684 46.2808L1.72025 40.1441C1.40412 39.828 1.40412 39.3136 1.72025 38.9975L16.8006 23.917L24.084 31.2005ZM3.13475 8.15607C1.75044 6.77176 1.75044 4.51932 3.13475 3.13501C4.51906 1.75061 6.7715 1.75061 8.15581 3.13501L10.4973 5.47651L5.47625 10.4976L3.13475 8.15607ZM10.9512 10.9503C10.951 10.9505 10.9508 10.9506 10.9507 10.9508C10.9505 10.9509 10.9504 10.9511 10.9502 10.9512L8.44016 13.4613L6.524 11.5451L11.5451 6.52407L13.4612 8.44023L10.9512 10.9503ZM45.3485 45.3451L38.0488 42.5111L42.5113 38.0485L45.3485 45.3451Z" fill="#350000"/>
</g>
<defs>
<clipPath id="clip0_424_43">
<rect width="48" height="48" fill="white"/>
</clipPath>
</defs>
</svg>
