<svg width="24" height="24" viewBox="0 0 24 24" fill="none" xmlns="http://www.w3.org/2000/svg">
<g clip-path="url(#clip0_424_62)">
<path d="M12.011 5.01978C8.17315 5.01978 5.05078 8.14214 5.05078 11.98C5.05078 13.3173 5.43085 14.6159 6.1498 15.7355L6.32258 16.0045L5.64561 18.409L8.13328 17.7686L8.38986 17.9253C9.47755 18.5893 10.7298 18.9403 12.011 18.9403C15.8489 18.9403 18.9713 15.8179 18.9713 11.98C18.9713 8.14214 15.8489 5.01978 12.011 5.01978ZM16.2791 14.1192L16.1923 14.5249C16.0943 14.9825 15.8226 15.3873 15.4283 15.6395C14.9305 15.958 14.2852 16.1143 13.465 15.8824C10.9197 15.1627 9.48018 13.4774 8.70783 12.4242C7.93543 11.3709 7.63704 10.3177 7.8301 9.45755C7.9596 8.88068 8.38122 8.43805 8.6449 8.20902C8.77408 8.09685 8.94166 8.03977 9.11244 8.04909L9.65634 8.07874C9.76346 8.08458 9.85793 8.15073 9.90012 8.24936L10.6924 10.1031C10.7348 10.2022 10.7169 10.3167 10.6465 10.3982L9.95683 11.196C9.90091 11.2607 9.89116 11.3528 9.93055 11.4287C10.8389 13.1784 12.4943 13.8717 12.9885 14.0454C13.0727 14.075 13.166 14.047 13.2205 13.9763L13.9422 13.0408C14.0224 12.9367 14.1639 12.902 14.2833 12.957L16.1215 13.8043C16.2413 13.8595 16.3067 13.9903 16.2791 14.1192Z" fill="#350000"/>
<path d="M0 0V24H24V0H0ZM12.0108 20.3623C10.5707 20.3623 9.16046 19.9936 7.91293 19.2936L3.60708 20.402L4.78266 16.2267C4.02669 14.9424 3.62867 13.4812 3.62867 11.9801C3.62867 7.35818 7.38889 3.59796 12.0108 3.59796C16.6328 3.59796 20.3929 7.35818 20.3929 11.9801C20.3929 16.6021 16.6328 20.3623 12.0108 20.3623Z" fill="#350000"/>
</g>
<defs>
<clipPath id="clip0_424_62">
<rect width="24" height="24" rx="3" fill="white"/>
</clipPath>
</defs>
</svg>
